<svg width="732" height="196" viewBox="0 0 732 196" fill="none" xmlns="http://www.w3.org/2000/svg">
<rect x="0.68689" y="0.286499" width="730.953" height="195" fill="url(#paint0_linear)"/>
<g opacity="0.1">
<path d="M584.626 128.409V69.3865C584.626 69.3865 584.626 65.1882 588.672 62.9656C592.718 60.743 637.225 33.9482 637.225 33.9482C637.225 33.9482 642.865 30.1204 648.75 33.9482C648.75 33.9482 701.595 63.4595 700.736 65.1882L677.318 79.0178C677.318 79.0178 672.904 68.6456 661.256 62.9656C647.402 56.1743 624.842 55.31 608.657 79.3882C608.657 79.3882 598.113 96.0578 609.025 118.407L585.73 131.62C585.73 131.62 584.626 130.879 584.626 128.409Z" fill="white"/>
<path d="M659.785 88.896C656.352 83.0926 650.099 79.1413 642.865 79.1413C632.076 79.1413 623.248 88.0317 623.248 98.8978C623.248 102.355 624.106 105.566 625.7 108.406L659.785 88.896Z" fill="white"/>
<path d="M625.577 108.282C629.01 114.086 635.263 118.037 642.497 118.037C653.287 118.037 662.115 109.147 662.115 98.2804C662.115 94.823 661.257 91.6126 659.663 88.7726L625.577 108.282Z" fill="white"/>
<path d="M700.736 65.1882L643.846 97.91L700.369 131.373C702.33 130.138 700.736 65.1882 700.736 65.1882ZM683.081 100.997H678.299V105.813H673.15V100.997H668.245V95.9343H673.15V90.8717H678.299V95.9343H683.081V100.997ZM699.756 100.997H694.974V105.813H689.824V100.997H684.92V95.9343H689.824V90.8717H694.974V95.9343H699.756V100.997Z" fill="white"/>
<path d="M608.903 118.284C608.903 118.284 620.183 139.275 643.846 138.164C667.51 137.053 677.318 117.667 677.318 117.667L700.246 131.002C700.246 131.002 705.273 131.99 649.241 162.736C649.241 162.736 643.233 166.811 636.735 162.736C636.735 162.736 586.097 134.213 585.73 131.496C585.73 131.496 608.903 118.284 608.903 118.284Z" fill="white"/>
</g>
<defs>
<linearGradient id="paint0_linear" x1="0.68689" y1="195.286" x2="731.64" y2="195.286" gradientUnits="userSpaceOnUse">
<stop stop-color="#19316C"/>
<stop offset="1" stop-color="#01B3C9"/>
</linearGradient>
</defs>
</svg>
